<svg id="Layer_1" data-name="Layer 1" xmlns="http://www.w3.org/2000/svg" viewBox="0 0 171.35 162.78"><defs><style>.cls-1{fill:#ff7f00;}</style></defs><path class="cls-1" d="M96,14.61c-47.24,0-85.67,34.59-85.67,77.11a71.3,71.3,0,0,0,13.61,41.7c-1.68,18.67-6.21,32.53-12.78,39.09a2.87,2.87,0,0,0-.53,3.3,2.84,2.84,0,0,0,2.55,1.58,2.69,2.69,0,0,0,.4,0c1.16-.16,28-4,47.46-15.25a92.79,92.79,0,0,0,35,6.71c47.24,0,85.67-34.59,85.67-77.1S143.24,14.61,96,14.61ZM56,103.14A11.43,11.43,0,1,1,67.44,91.72,11.43,11.43,0,0,1,56,103.14Zm40,0a11.43,11.43,0,1,1,11.42-11.42A11.43,11.43,0,0,1,96,103.14Zm40,0A11.43,11.43,0,1,1,147.4,91.72,11.43,11.43,0,0,1,136,103.14Z" transform="translate(-10.33 -14.61)"/></svg>